<?xml version="1.0"?>
<svg xmlns="http://www.w3.org/2000/svg" xmlns:xlink="http://www.w3.org/1999/xlink" xmlns:svgjs="http://svgjs.com/svgjs" version="1.1" width="512" height="512" x="0" y="0" viewBox="0 0 512 512" style="enable-background:new 0 0 512 512" xml:space="preserve" class=""><g><g xmlns="http://www.w3.org/2000/svg"><g><g><g><g><g><g><circle cx="255.399" cy="455.112" fill="#00000000" r="49.388" data-original="#64b9fc" style="" class=""/><path d="m304.783 455.108c0 27.276-22.102 49.392-49.378 49.392-9.6 0-18.567-2.745-26.141-7.487 20.708-2.73 36.689-20.45 36.689-41.905 0-21.441-15.98-39.175-36.703-41.891 7.588-4.742 16.541-7.487 26.155-7.487 27.275-.001 49.378 22.102 49.378 49.378z" fill="#00000000" data-original="#31a7fb" style="" class=""/></g></g><path d="m475.081 427.775c-2.45-10.544-7.277-19.869-13.513-28.064-21.786-28.633-33.669-63.571-33.669-99.549v-82.521c0-82.014-57.438-150.605-134.28-167.76-11.151-2.49-19.067-12.404-19.067-23.83-.001-10.245-8.306-18.551-18.552-18.551-10.246 0-18.551 8.306-18.551 18.551 0 11.426-7.916 21.34-19.067 23.83-76.842 17.155-134.28 85.746-134.28 167.76v82.521c0 35.978-11.884 70.917-33.67 99.549-6.235 8.195-11.062 17.52-13.513 28.064-1.544 6.643 3.503 12.999 10.324 12.999h417.514c6.82 0 11.868-6.356 10.324-12.999z" fill="#00000000" data-original="#bcea73" style="" class=""/><g fill="#a3e440"><path d="m464.76 440.77h-44.1c6.82 0 11.87-6.35 10.32-13-2.45-10.54-7.27-19.86-13.51-28.06-21.78-28.63-33.67-63.57-33.67-99.55v-82.52c0-82.01-57.44-150.6-134.28-167.76-6.69-1.49-12.21-5.66-15.57-11.22 2.23-3.71 3.5-8.04 3.5-12.61 0-5.12 2.07-9.76 5.43-13.11 3.36-3.36 8-5.44 13.12-5.44s9.76 2.08 13.12 5.44c3.36 3.35 5.43 7.99 5.43 13.11 0 11.43 7.92 21.34 19.07 23.83 76.84 17.16 134.28 85.75 134.28 167.76v82.52c0 35.98 11.88 70.92 33.67 99.55 6.23 8.2 11.06 17.52 13.51 28.06 1.54 6.65-3.5 13-10.32 13z" fill="#00000000" data-original="#a3e440" style="" class=""/><path d="m181.711 95.384c0 14.52-11.777 26.298-26.298 26.298-12.593 0-23.11-8.843-25.694-20.653 10.602-11.491 22.76-21.521 36.147-29.771 9.321 4.035 15.845 13.313 15.845 24.126z" fill="#00000000" data-original="#a3e440" style="" class=""/></g></g></g><g><circle cx="392.808" cy="117.051" fill="#00000000" r="23.33" data-original="#a8e7ef" style="" class=""/><path d="m416.137 117.049c0 12.889-10.448 23.338-23.327 23.338-4.318 0-8.369-1.173-11.834-3.23 9.158-2.111 15.981-10.31 15.981-20.107 0-9.787-6.813-17.997-15.971-20.108 3.465-2.047 7.506-3.22 11.823-3.22 12.879-.001 23.328 10.448 23.328 23.327z" fill="#00000000" data-original="#70d9e6" style="" class=""/></g><g><circle cx="155.411" cy="69.076" fill="#00000000" r="26.301" data-original="#a8e7ef" style="" class=""/><path d="m181.71 69.073c0 14.531-11.779 26.309-26.298 26.309-4.868 0-9.435-1.322-13.341-3.642 10.324-2.38 18.016-11.622 18.016-22.668 0-11.034-7.68-20.288-18.004-22.668 3.906-2.308 8.461-3.63 13.329-3.63 14.519.001 26.298 11.78 26.298 26.299z" fill="#00000000" data-original="#70d9e6" style="" class=""/></g><g><circle cx="409.618" cy="36.16" fill="#00000000" r="28.059" data-original="#64b9fc" style="" class=""/><path d="m437.675 36.157c0 15.502-12.566 28.069-28.056 28.069-5.193 0-10.066-1.411-14.233-3.885 11.015-2.539 19.221-12.399 19.221-24.183 0-11.771-8.194-21.645-19.208-24.184 4.167-2.462 9.027-3.872 14.22-3.872 15.49-.001 28.056 12.565 28.056 28.055z" fill="#00000000" data-original="#31a7fb" style="" class=""/></g></g></g><g><path d="m482.386 426.077c-2.529-10.883-7.525-21.282-14.849-30.908-20.725-27.238-32.138-60.979-32.138-95.007v-26.342c0-4.142-3.358-7.5-7.5-7.5s-7.5 3.358-7.5 7.5v26.342c0 21.517 4.171 42.924 12.053 62.918h-352.904c7.883-19.994 12.053-41.401 12.053-62.918v-82.521c0-22.171 4.345-43.69 12.915-63.958 1.613-3.815-.172-8.216-3.987-9.829-3.815-1.615-8.216.172-9.829 3.987-9.356 22.127-14.1 45.611-14.1 69.8v82.521c0 34.029-11.414 67.77-32.138 95.007-7.324 9.626-12.32 20.024-14.849 30.908-1.257 5.408.003 11.004 3.458 15.354 3.454 4.349 8.62 6.844 14.171 6.844h151.683c-.272 2.263-.415 4.546-.415 6.838 0 6.581 1.123 13.045 3.336 19.215 1.099 3.062 3.983 4.969 7.06 4.969.84 0 1.696-.143 2.533-.443 3.898-1.399 5.925-5.693 4.526-9.592-1.628-4.54-2.455-9.3-2.455-14.148 0-2.301.208-4.586.578-6.838h82.62c.369 2.252.578 4.537.578 6.838 0 23.097-18.791 41.888-41.888 41.888-6.502 0-12.742-1.456-18.546-4.328-3.712-1.836-8.211-.317-10.048 3.396-1.837 3.712-.317 8.211 3.396 10.048 7.89 3.904 16.368 5.884 25.198 5.884 31.368 0 56.888-25.52 56.888-56.888 0-2.292-.144-4.575-.415-6.838h152.885c5.552 0 10.717-2.495 14.171-6.844 3.456-4.351 4.716-9.947 3.459-15.355zm-15.204 6.025c-.348.438-1.125 1.173-2.425 1.173h-417.514c-1.3 0-2.078-.735-2.425-1.173-.348-.438-.888-1.362-.594-2.628 2.047-8.807 6.144-17.292 12.176-25.221 6.261-8.228 11.741-17.001 16.402-26.172h366.396c4.661 9.171 10.141 17.944 16.402 26.172 6.033 7.929 10.129 16.414 12.176 25.22.294 1.266-.246 2.191-.594 2.629z" fill="#3945ba" data-original="#000000" style="" class=""/><path d="m111.289 124.537c1.316.932 2.829 1.38 4.328 1.38 2.35 0 4.665-1.102 6.127-3.166 5.815-8.211 12.411-15.91 19.633-22.938 4.278 1.961 9.029 3.064 14.034 3.064 18.638 0 33.801-15.163 33.801-33.801 0-.561-.015-1.118-.042-1.672 9.912-4.415 20.267-7.841 30.847-10.202 14.68-3.278 24.933-16.087 24.933-31.15-.001-6.094 4.956-11.052 11.05-11.052s11.051 4.958 11.051 11.051c0 15.063 10.253 27.872 24.933 31.15 28.787 6.426 55.154 20.463 76.668 40.726-4.173 5.26-6.675 11.903-6.675 19.124 0 17 13.83 30.83 30.83 30.83 3.908 0 7.644-.738 11.088-2.071 10.804 22.24 16.503 46.926 16.503 71.83v19.153c0 4.142 3.358 7.5 7.5 7.5s7.5-3.358 7.5-7.5v-19.153c0-28.011-6.602-55.781-19.116-80.637 4.581-5.382 7.355-12.348 7.355-19.953 0-17-13.83-30.83-30.83-30.83-4.297 0-8.391.886-12.111 2.482-23.792-23.022-53.224-38.948-85.445-46.141-7.773-1.735-13.202-8.525-13.202-16.51.002-14.364-11.684-26.051-26.049-26.051s-26.051 11.687-26.051 26.051c0 7.985-5.429 14.775-13.201 16.51-10.85 2.422-21.476 5.885-31.695 10.289-5.751-10.465-16.881-17.575-29.642-17.575-18.638 0-33.8 15.163-33.8 33.801 0 8.17 2.915 15.672 7.758 21.522-7.271 7.249-13.942 15.12-19.866 23.484-2.395 3.38-1.595 8.061 1.786 10.455zm297.349-7.486c0 8.729-7.102 15.83-15.83 15.83s-15.83-7.102-15.83-15.83 7.102-15.83 15.83-15.83 15.83 7.102 15.83 15.83zm-253.227-66.776c10.367 0 18.801 8.434 18.801 18.801s-8.434 18.801-18.801 18.801-18.8-8.434-18.8-18.801 8.433-18.801 18.8-18.801z" fill="#3945ba" data-original="#000000" style="" class=""/><path d="m254.684 246.423c-.042 0-.083 0-.125 0-9.092 0-17.659 3.002-24.131 8.461-3.167 2.67-3.569 7.402-.898 10.568 2.67 3.167 7.402 3.569 10.568.898 3.717-3.134 8.985-4.928 14.466-4.928h.076c5.507.016 10.796 1.844 14.511 5.015 1.413 1.206 3.143 1.796 4.866 1.796 2.119 0 4.225-.893 5.708-2.631 2.689-3.15 2.315-7.884-.835-10.574-6.471-5.522-15.067-8.578-24.206-8.605z" fill="#3945ba" data-original="#000000" style="" class=""/><path d="m211.848 216.609c-.014 0-.026 0-.04 0-4.123 0-7.43 3.333-7.452 7.461-.021 4.142 3.366 7.518 7.508 7.539h.04c4.124 0 7.478-3.333 7.499-7.461.021-4.142-3.319-7.518-7.461-7.539z" fill="#3945ba" data-original="#000000" style="" class=""/><path d="m299.618 216.609h-.02c-.003 0-.005 0-.008 0h-.066-.029c-.004 0-.007 0-.011 0-4.123 0-7.43 3.333-7.452 7.461-.02 3.898 2.978 7.114 6.783 7.499.049.005.1.004.15.008.19.015.381.031.575.032h.04.01c.097 0 .191-.011.287-.015.156-.006.313-.008.466-.023 3.788-.378 6.746-3.574 6.746-7.462 0-4.074-3.25-7.382-7.298-7.49-.057-.002-.114-.009-.173-.01z" fill="#3945ba" data-original="#000000" style="" class=""/><path d="m441.382 95.39 6.735 6.735-6.735 6.735c-2.929 2.929-2.929 7.678 0 10.606 1.464 1.464 3.384 2.197 5.303 2.197s3.839-.732 5.303-2.197l6.735-6.735 6.735 6.735c1.464 1.464 3.384 2.197 5.303 2.197s3.839-.732 5.303-2.197c2.929-2.929 2.929-7.678 0-10.606l-6.735-6.735 6.735-6.735c2.929-2.929 2.929-7.678 0-10.606-2.929-2.929-7.678-2.929-10.606 0l-6.735 6.735-6.735-6.735c-2.929-2.929-7.678-2.929-10.606 0-2.929 2.928-2.929 7.677 0 10.606z" fill="#3945ba" data-original="#000000" style="" class=""/><path d="m409.618 71.72c19.607 0 35.559-15.952 35.559-35.56s-15.951-35.559-35.559-35.559-35.56 15.952-35.56 35.559 15.953 35.56 35.56 35.56zm0-56.119c11.336 0 20.559 9.223 20.559 20.559s-9.223 20.56-20.559 20.56-20.56-9.223-20.56-20.56 9.224-20.559 20.56-20.559z" fill="#3945ba" data-original="#000000" style="" class=""/><path d="m64.407 61.295c1.464 1.464 3.384 2.197 5.303 2.197s3.839-.732 5.303-2.197l4.611-4.611 4.611 4.611c1.464 1.464 3.384 2.197 5.303 2.197s3.839-.732 5.303-2.197c2.929-2.929 2.929-7.678 0-10.606l-4.611-4.611 4.611-4.611c2.929-2.929 2.929-7.678 0-10.606-2.929-2.929-7.678-2.929-10.606 0l-4.611 4.611-4.611-4.611c-2.929-2.929-7.678-2.929-10.606 0-2.929 2.929-2.929 7.678 0 10.606l4.611 4.611-4.611 4.611c-2.929 2.928-2.929 7.677 0 10.606z" fill="#3945ba" data-original="#000000" style="" class=""/></g></g></g></svg>
