<?xml version="1.0"?>
<svg xmlns="http://www.w3.org/2000/svg" xmlns:xlink="http://www.w3.org/1999/xlink" xmlns:svgjs="http://svgjs.com/svgjs" version="1.1" width="512" height="512" x="0" y="0" viewBox="0 0 330.063 330.063" style="enable-background:new 0 0 512 512" xml:space="preserve"><g>
<path xmlns="http://www.w3.org/2000/svg" d="M326.551,91.828c-5.609-22-17.583-40.984-34.626-54.899c-16.691-13.627-37.175-21.132-57.676-21.132  c-26.426,0-50.435,11.752-69.243,33.519c-18.797-21.765-42.798-33.519-69.216-33.519c-20.494,0-40.97,7.505-57.657,21.133  C21.096,50.845,9.124,69.827,3.515,91.825c-6.046,23.71-7.266,61.521,21.261,107.015c25.939,41.367,70.701,79.584,133.042,113.592  c2.239,1.221,4.711,1.832,7.184,1.832c2.472,0,4.943-0.61,7.182-1.831c62.359-34.009,107.137-72.227,133.087-113.591  C333.811,153.349,332.596,115.537,326.551,91.828z M165.003,282.115C19.895,200.327,26.863,121.673,32.584,99.239  c7.896-30.966,34.479-53.441,63.206-53.441c21.983,0,42.006,13.074,56.38,36.814c2.717,4.488,7.582,7.23,12.828,7.231  c0.001,0,0.002,0,0.003,0c5.245,0,10.11-2.74,12.828-7.227c14.388-23.743,34.425-36.818,56.419-36.818  c28.743,0,55.336,22.476,63.231,53.442C303.2,121.674,310.185,200.316,165.003,282.115z" fill="#ffffff" data-original="#000000" style=""/>
<g xmlns="http://www.w3.org/2000/svg">
</g>
<g xmlns="http://www.w3.org/2000/svg">
</g>
<g xmlns="http://www.w3.org/2000/svg">
</g>
<g xmlns="http://www.w3.org/2000/svg">
</g>
<g xmlns="http://www.w3.org/2000/svg">
</g>
<g xmlns="http://www.w3.org/2000/svg">
</g>
<g xmlns="http://www.w3.org/2000/svg">
</g>
<g xmlns="http://www.w3.org/2000/svg">
</g>
<g xmlns="http://www.w3.org/2000/svg">
</g>
<g xmlns="http://www.w3.org/2000/svg">
</g>
<g xmlns="http://www.w3.org/2000/svg">
</g>
<g xmlns="http://www.w3.org/2000/svg">
</g>
<g xmlns="http://www.w3.org/2000/svg">
</g>
<g xmlns="http://www.w3.org/2000/svg">
</g>
<g xmlns="http://www.w3.org/2000/svg">
</g>
</g></svg>
